<?xml version="1.0" standalone="no"?>
<!DOCTYPE svg PUBLIC "-//W3C//DTD SVG 20010904//EN"
 "http://www.w3.org/TR/2001/REC-SVG-20010904/DTD/svg10.dtd">
<svg version="1.0" xmlns="http://www.w3.org/2000/svg"
 width="512.000000pt" height="512.000000pt" viewBox="0 0 512.000000 512.000000"
 preserveAspectRatio="xMidYMid meet">

<g transform="translate(0.000000,512.000000) scale(0.100000,-0.100000)"
fill="#000000" stroke="none">
<path d="M122 4997 l-122 -122 0 -863 0 -862 250 0 250 0 2 555 3 555 853
-852 852 -853 -855 -855 -855 -855 0 563 0 562 -250 0 -250 0 0 -863 0 -862
123 -123 122 -122 863 0 862 0 0 250 0 250 -550 2 -550 3 847 848 848 847 850
-850 850 -850 -558 0 -557 0 0 -250 0 -250 863 0 862 0 123 123 122 122 0 863
0 862 -250 0 -250 0 0 -557 0 -558 -850 850 -850 850 847 848 848 847 3 -550
2 -550 250 0 250 0 0 863 0 862 -123 123 -122 122 -863 0 -862 0 0 -250 0
-250 562 0 563 0 -855 -855 -855 -855 -853 852 -852 853 555 3 555 2 0 250 0
250 -863 0 -862 0 -123 -123z"/>
</g>
</svg>
